<mxfile host="Electron" modified="2023-04-18T00:38:55.352Z" agent="Mozilla/5.0 (Macintosh; Intel Mac OS X 10_15_7) AppleWebKit/537.36 (KHTML, like Gecko) draw.io/21.1.2 Chrome/106.0.5249.199 Electron/21.4.3 Safari/537.36" etag="XHD9Vcw5P2nzqfX12dlG" compressed="false" version="21.1.2" type="device">
  <diagram name="Страница-1" id="Страница-1">
    <mxGraphModel dx="954" dy="610" grid="1" gridSize="10" guides="1" tooltips="1" connect="1" arrows="1" fold="1" page="1" pageScale="1" pageWidth="1000" pageHeight="1000" math="0" shadow="0">
      <root>
        <mxCell id="0" />
        <mxCell id="tpW0L4eKJtAbM24Pp-hq-4" value="Границы" parent="0" />
        <mxCell id="4LTxZ9sKMsI198zNGcmg-0" value="&lt;font style=&quot;font-size: 18px;&quot; face=&quot;Arial&quot;&gt;Связанные данные&lt;/font&gt;" style="edgeStyle=orthogonalEdgeStyle;rounded=0;orthogonalLoop=1;jettySize=auto;html=1;align=left;startArrow=classic;startFill=1;" edge="1" parent="tpW0L4eKJtAbM24Pp-hq-4" source="c_GgWeIZ1fy48l5YVFOS-0" target="c_GgWeIZ1fy48l5YVFOS-1">
          <mxGeometry relative="1" as="geometry">
            <mxPoint as="offset" />
          </mxGeometry>
        </mxCell>
        <mxCell id="c_GgWeIZ1fy48l5YVFOS-0" value="Представление" style="rounded=0;whiteSpace=wrap;html=1;fontSize=22;strokeWidth=3;align=center;fontFamily=Arial;fontStyle=2" parent="tpW0L4eKJtAbM24Pp-hq-4" vertex="1">
          <mxGeometry x="400" y="40" width="180" height="120" as="geometry" />
        </mxCell>
        <mxCell id="c_GgWeIZ1fy48l5YVFOS-5" value="Обновляет данные" style="edgeStyle=orthogonalEdgeStyle;rounded=0;orthogonalLoop=1;jettySize=auto;html=1;exitX=0.25;exitY=1;exitDx=0;exitDy=0;entryX=0.25;entryY=0;entryDx=0;entryDy=0;fontFamily=Arial;align=right;fontSize=18;" parent="tpW0L4eKJtAbM24Pp-hq-4" source="c_GgWeIZ1fy48l5YVFOS-1" target="c_GgWeIZ1fy48l5YVFOS-2" edge="1">
          <mxGeometry relative="1" as="geometry">
            <mxPoint as="offset" />
          </mxGeometry>
        </mxCell>
        <mxCell id="c_GgWeIZ1fy48l5YVFOS-13" value="" style="edgeStyle=orthogonalEdgeStyle;rounded=0;orthogonalLoop=1;jettySize=auto;html=1;entryX=0;entryY=0.5;entryDx=0;entryDy=0;endArrow=none;endFill=0;startArrow=classic;startFill=1;fontFamily=Arial;" parent="tpW0L4eKJtAbM24Pp-hq-4" source="c_GgWeIZ1fy48l5YVFOS-1" target="c_GgWeIZ1fy48l5YVFOS-0" edge="1">
          <mxGeometry relative="1" as="geometry">
            <Array as="points">
              <mxPoint x="200" y="300" />
              <mxPoint x="200" y="100" />
            </Array>
          </mxGeometry>
        </mxCell>
        <mxCell id="c_GgWeIZ1fy48l5YVFOS-15" value="Оповещает об &lt;br&gt;изменившихся данных" style="edgeStyle=orthogonalEdgeStyle;rounded=0;orthogonalLoop=1;jettySize=auto;html=1;exitX=0.75;exitY=1;exitDx=0;exitDy=0;entryX=0.75;entryY=0;entryDx=0;entryDy=0;align=left;endArrow=none;endFill=0;startArrow=classic;startFill=1;fontSize=18;fontFamily=Arial;" parent="tpW0L4eKJtAbM24Pp-hq-4" source="c_GgWeIZ1fy48l5YVFOS-1" target="c_GgWeIZ1fy48l5YVFOS-2" edge="1">
          <mxGeometry relative="1" as="geometry">
            <mxPoint as="offset" />
          </mxGeometry>
        </mxCell>
        <mxCell id="c_GgWeIZ1fy48l5YVFOS-1" value="Модель Представления" style="rounded=0;whiteSpace=wrap;html=1;fontSize=22;strokeWidth=3;align=center;fontFamily=Arial;fontStyle=2" parent="tpW0L4eKJtAbM24Pp-hq-4" vertex="1">
          <mxGeometry x="400" y="239.99999999999994" width="180" height="120" as="geometry" />
        </mxCell>
        <mxCell id="c_GgWeIZ1fy48l5YVFOS-19" value="" style="edgeStyle=orthogonalEdgeStyle;rounded=0;orthogonalLoop=1;jettySize=auto;html=1;entryX=1;entryY=0.5;entryDx=0;entryDy=0;fontSize=18;fontFamily=Arial;align=center;strokeColor=#FFFFFF;" parent="tpW0L4eKJtAbM24Pp-hq-4" edge="1">
          <mxGeometry x="0.65" y="-20" relative="1" as="geometry">
            <mxPoint x="580" y="500" as="sourcePoint" />
            <mxPoint x="580" y="100" as="targetPoint" />
            <Array as="points">
              <mxPoint x="780" y="500" />
              <mxPoint x="780" y="100" />
            </Array>
            <mxPoint as="offset" />
          </mxGeometry>
        </mxCell>
        <mxCell id="c_GgWeIZ1fy48l5YVFOS-2" value="Модель" style="rounded=0;whiteSpace=wrap;html=1;fontSize=22;strokeWidth=3;align=center;fontFamily=Arial;fontStyle=2" parent="tpW0L4eKJtAbM24Pp-hq-4" vertex="1">
          <mxGeometry x="400" y="439.99999999999994" width="180" height="120" as="geometry" />
        </mxCell>
        <mxCell id="c_GgWeIZ1fy48l5YVFOS-21" value="&lt;meta charset=&quot;utf-8&quot;&gt;&lt;span style=&quot;color: rgb(0, 0, 0); font-size: 18px; font-style: normal; font-variant-ligatures: normal; font-variant-caps: normal; font-weight: 400; letter-spacing: normal; orphans: 2; text-align: center; text-indent: 0px; text-transform: none; widows: 2; word-spacing: 0px; -webkit-text-stroke-width: 0px; background-color: rgb(255, 255, 255); text-decoration-thickness: initial; text-decoration-style: initial; text-decoration-color: initial; float: none; display: inline !important;&quot;&gt;Инициализирует&lt;/span&gt;" style="text;whiteSpace=wrap;html=1;verticalAlign=top;fontFamily=Arial;" parent="tpW0L4eKJtAbM24Pp-hq-4" vertex="1">
          <mxGeometry x="200" y="300" width="170" height="50" as="geometry" />
        </mxCell>
        <mxCell id="tpW0L4eKJtAbM24Pp-hq-6" value="Рамка" parent="0" />
        <mxCell id="tpW0L4eKJtAbM24Pp-hq-5" value="Надписи" parent="0" />
        <mxCell id="tpW0L4eKJtAbM24Pp-hq-7" value="Связи" parent="0" />
        <mxCell id="tpW0L4eKJtAbM24Pp-hq-3" value="Сущности" parent="0" />
      </root>
    </mxGraphModel>
  </diagram>
</mxfile>
